<svg xmlns="http://www.w3.org/2000/svg" width="125.028" height="145" viewBox="0 0 125.028 145" fill="none">
  <path d="M 118.787 7.451 L 111.539 38.667 C 108.586 37.593 105.297 36.653 101.673 35.847 C 98.049 35.042 94.291 34.37 90.399 33.833 C 86.506 33.296 82.547 32.894 78.52 32.625 C 74.628 32.356 70.869 32.222 67.245 32.222 C 60.266 32.222 55.098 33.028 51.743 34.639 C 48.387 36.116 46.709 38.532 46.709 41.889 C 46.709 44.037 47.38 45.85 48.723 47.326 C 50.199 48.803 52.347 50.146 55.165 51.354 C 57.984 52.428 61.675 53.569 66.239 54.778 C 70.802 55.986 76.238 57.329 82.547 58.806 C 89.392 60.282 95.432 62.229 100.667 64.646 C 106.036 67.063 110.532 69.882 114.156 73.104 C 117.78 76.326 120.465 80.22 122.209 84.785 C 124.089 89.35 125.028 94.72 125.028 100.896 C 125.028 110.294 122.478 118.282 117.377 124.861 C 112.411 131.44 104.962 136.475 95.029 139.965 C 85.097 143.322 72.816 145 58.185 145 C 53.488 145 48.588 144.799 43.488 144.396 C 38.388 143.993 33.354 143.389 28.388 142.583 C 23.422 141.778 18.523 140.838 13.691 139.764 C 8.993 138.556 4.429 137.146 0 135.535 L 7.651 104.521 C 11.812 105.998 16.174 107.34 20.737 108.549 C 25.301 109.623 29.864 110.562 34.428 111.368 C 38.992 112.174 43.488 112.778 47.917 113.181 C 52.347 113.583 56.575 113.785 60.601 113.785 C 65.97 113.785 70.198 113.449 73.285 112.778 C 76.373 111.972 78.587 110.831 79.929 109.354 C 81.406 107.877 82.144 106.065 82.144 103.917 C 82.144 101.634 81.205 99.822 79.325 98.479 C 77.581 97.002 74.829 95.66 71.071 94.451 C 67.447 93.243 62.883 91.9 57.38 90.424 C 52.011 88.947 45.703 87.269 38.455 85.389 C 33.086 83.509 28.254 81.361 23.959 78.944 C 19.664 76.394 15.972 73.507 12.885 70.285 C 9.932 66.928 7.651 63.035 6.04 58.604 C 4.429 54.174 3.624 49.139 3.624 43.5 C 3.624 37.324 4.765 31.618 7.047 26.382 C 9.463 21.012 13.154 16.38 18.12 12.486 C 23.22 8.458 29.797 5.37 37.851 3.222 C 45.904 1.074 55.568 0 66.843 0 C 73.822 0 80.533 0.336 86.976 1.007 C 93.419 1.678 99.392 2.618 104.895 3.826 C 110.398 4.9 115.029 6.109 118.787 7.451 Z" fill="currentColor" fill-rule="nonzero"></path>
</svg>