<svg xmlns="http://www.w3.org/2000/svg" width="9.975" height="12.200" viewBox="0 0 9.975 12.200" fill="none">
  <path d="M 4.987 12.2 C 3.903 12.2 3.036 12.093 2.277 11.772 C 1.518 11.451 0.976 11.023 0.651 10.488 C 0.325 9.953 0.108 9.418 0 8.883 C 0 8.776 0 8.669 0.108 8.669 C 0.217 8.561 0.217 8.561 0.325 8.561 L 1.952 8.561 C 2.06 8.561 2.168 8.561 2.277 8.669 C 2.385 8.776 2.385 8.776 2.494 8.883 C 2.602 9.097 2.711 9.311 2.927 9.525 C 3.144 9.739 3.361 9.953 3.686 10.06 C 4.012 10.167 4.445 10.274 4.987 10.274 C 5.855 10.274 6.397 10.167 6.83 9.846 C 7.264 9.525 7.481 9.204 7.481 8.776 C 7.481 8.454 7.373 8.133 7.156 8.026 C 6.939 7.812 6.614 7.598 6.18 7.491 C 5.746 7.277 5.096 7.17 4.337 6.956 C 3.469 6.742 2.711 6.528 2.168 6.207 C 1.626 5.886 1.193 5.565 0.867 5.137 C 0.542 4.709 0.434 4.174 0.434 3.425 C 0.434 2.782 0.651 2.14 0.976 1.605 C 1.301 1.07 1.843 0.642 2.494 0.428 C 3.144 0.107 4.012 0 4.879 0 C 5.638 0 6.288 0.107 6.83 0.321 C 7.373 0.535 7.915 0.749 8.24 1.07 C 8.674 1.391 8.89 1.712 9.107 2.14 C 9.324 2.461 9.433 2.89 9.433 3.211 C 9.433 3.318 9.433 3.425 9.324 3.425 C 9.216 3.532 9.216 3.532 9.107 3.532 L 7.481 3.532 C 7.373 3.532 7.264 3.532 7.156 3.425 C 7.047 3.425 6.939 3.318 6.939 3.211 C 6.83 2.89 6.614 2.568 6.288 2.247 C 5.855 2.033 5.421 1.819 4.77 1.819 C 4.12 1.819 3.686 1.926 3.253 2.14 C 2.819 2.354 2.711 2.675 2.711 3.211 C 2.711 3.532 2.819 3.746 3.036 3.96 C 3.253 4.174 3.578 4.388 4.012 4.495 C 4.445 4.709 4.987 4.816 5.746 5.03 C 6.722 5.244 7.589 5.458 8.132 5.779 C 8.782 6.1 9.216 6.421 9.541 6.849 C 9.866 7.277 9.975 7.812 9.975 8.561 C 9.975 9.311 9.758 9.953 9.324 10.488 C 8.89 11.023 8.348 11.451 7.589 11.772 C 6.83 11.986 5.963 12.2 4.987 12.2 Z" fill="currentColor" fill-rule="nonzero"></path>
</svg>