<svg xmlns="http://www.w3.org/2000/svg" width="9.975" height="12.093" viewBox="0 0 9.975 12.093" fill="none">
  <path d="M 0.434 12.093 C 0.325 12.093 0.217 12.093 0.108 11.986 C 0 11.879 0 11.772 0 11.665 L 0 0.428 C 0 0.321 0 0.214 0.108 0.107 C 0.217 0 0.325 0 0.434 0 L 4.662 0 C 5.855 0 6.83 0.214 7.589 0.535 C 8.348 0.856 8.89 1.391 9.324 2.14 C 9.758 2.89 9.866 3.746 9.975 4.709 C 9.975 5.244 9.975 5.672 9.975 6.1 C 9.975 6.528 9.975 6.956 9.975 7.384 C 9.975 8.454 9.758 9.311 9.433 10.06 C 9.107 10.702 8.457 11.237 7.806 11.558 C 7.047 11.879 6.072 12.093 4.987 12.093 L 0.434 12.093 Z M 2.494 10.06 L 4.77 10.06 C 5.421 10.06 5.963 9.953 6.397 9.739 C 6.83 9.525 7.156 9.311 7.264 8.883 C 7.481 8.454 7.589 7.919 7.589 7.277 C 7.589 6.956 7.589 6.635 7.589 6.421 C 7.589 6.207 7.589 5.886 7.589 5.672 C 7.589 5.458 7.589 5.137 7.589 4.816 C 7.589 3.853 7.373 3.211 6.83 2.782 C 6.397 2.354 5.638 2.14 4.662 2.14 L 2.494 2.14 L 2.494 10.06 Z" fill="currentColor" fill-rule="nonzero"></path>
</svg>